<?xml version="1.0" encoding="UTF-8"?>
<!DOCTYPE svg PUBLIC "-//W3C//DTD SVG 1.1//EN" "http://www.w3.org/Graphics/SVG/1.1/DTD/svg11.dtd">
<!-- Creator: CorelDRAW X8 -->
<svg xmlns="http://www.w3.org/2000/svg" xml:space="preserve" width="361.652mm" height="113.327mm" version="1.1" style="shape-rendering:geometricPrecision; text-rendering:geometricPrecision; image-rendering:optimizeQuality; fill-rule:evenodd; clip-rule:evenodd"
viewBox="0 0 83545 26180"
 xmlns:xlink="http://www.w3.org/1999/xlink">
 <defs>
  <style type="text/css">
   <![CDATA[
    .fil0 {fill:black}
   ]]>
  </style>
 </defs>
 <g id="Слой_x0020_1">
  <metadata id="CorelCorpID_0Corel-Layer"/>
  <path class="fil0" d="M31553 0c726,18 1452,-7 2179,15 0,2593 7,5187 -5,7781 608,-260 1137,-748 1819,-792 359,-48 714,-121 1075,-162 1013,13 2051,167 2959,636 1380,633 2422,1933 2775,3407 184,515 173,1067 234,1603 -10,1050 -181,2127 -701,3053 -218,490 -599,878 -942,1280 -399,309 -772,670 -1246,866 -938,513 -2022,680 -3079,700 -382,-42 -758,-118 -1139,-166 -187,-31 -385,-35 -552,-135 -399,-208 -797,-416 -1194,-630 -4,232 -4,464 -4,696 -727,-4 -1455,5 -2183,-5 9,-6048 1,-12098 4,-18147zm3754 7370c-597,145 -1119,484 -1581,880 15,2921 5,5841 5,8762 520,440 1124,822 1819,888 602,45 1203,206 1809,106 790,-83 1500,-583 1878,-1276 687,-1239 748,-2699 795,-4084 -25,-1257 -99,-2550 -582,-3727 -298,-747 -898,-1412 -1695,-1617 -804,-258 -1636,-7 -2448,68zm-15121 914c1076,-1006 2583,-1488 4042,-1433 1201,60 2373,576 3211,1440 825,792 1361,1860 1615,2968 159,515 138,1060 212,1589 -2830,13 -5659,-1 -8489,7 55,1171 146,2369 598,3464 158,295 294,610 531,854 569,704 1541,949 2411,846 410,-62 841,-39 1224,-219 395,-173 846,-257 1162,-571 335,-306 752,-532 1003,-922 272,-332 447,-725 662,-1094 123,21 248,41 373,62 -275,432 -523,883 -821,1298 -343,334 -684,675 -1055,978 -388,212 -790,405 -1190,594 -475,121 -968,164 -1453,238 -957,-16 -1938,-142 -2809,-561 -942,-392 -1752,-1098 -2287,-1965 -1240,-1982 -1077,-4652 188,-6581 283,-337 518,-722 872,-992zm1237 402c-574,1185 -613,2533 -643,3823 1985,-1 3970,1 5955,-1 -26,-1078 -92,-2165 -389,-3207 -207,-619 -476,-1264 -1015,-1667 -499,-431 -1210,-509 -1843,-412 -887,73 -1695,657 -2065,1464zm25950 -1106c1084,-603 2358,-830 3587,-707 820,62 1629,301 2328,738 326,325 755,603 872,1078 121,371 -67,736 -174,1086 -166,173 -335,346 -524,496 -284,46 -608,199 -877,27 -449,-187 -630,-704 -645,-1157 9,-331 20,-666 -28,-996 -150,-524 -680,-859 -1206,-910 -794,-130 -1655,2 -2325,465 -750,541 -1103,1445 -1296,2318 -300,1647 -282,3349 -18,5000 182,908 493,1869 1238,2471 696,565 1646,618 2500,500 559,3 1065,-252 1583,-428 870,-418 1436,-1285 1690,-2193 16,-238 277,-104 423,-106 -190,482 -375,975 -633,1425 -425,393 -758,928 -1328,1124 -363,155 -704,388 -1106,428 -562,57 -1124,207 -1690,114 -680,-16 -1340,-189 -1981,-403 -441,-226 -920,-400 -1298,-730 -1309,-955 -2032,-2569 -2095,-4165 -74,-552 34,-1104 90,-1651 174,-563 317,-1151 656,-1643 254,-516 656,-934 1051,-1343 388,-299 754,-638 1206,-838zm12646 -684c709,-140 1418,69 2121,150 642,180 1248,543 1667,1068 457,513 673,1186 804,1849 125,942 78,1893 86,2841 -4,1773 9,3546 -6,5320 -725,-15 -1449,-6 -2174,-5 1,-283 9,-566 1,-849 -271,163 -503,379 -763,555 -1303,738 -3026,717 -4277,-125 -278,-149 -462,-412 -665,-644 -373,-592 -439,-1362 -169,-2009 192,-287 374,-583 586,-856 295,-256 626,-470 942,-700 1052,-581 2199,-952 3293,-1440 265,-155 540,-303 778,-496 132,-244 314,-494 279,-788 -21,-827 -1,-1666 -187,-2476 -95,-408 -337,-807 -741,-966 -589,-202 -1230,-172 -1834,-63 -383,92 -791,206 -1063,510 257,241 538,514 590,880 98,394 -63,846 -390,1087 -394,313 -1017,293 -1386,-50 -323,-280 -417,-737 -374,-1146 37,-2 114,-5 151,-6 -35,-48 -70,-95 -106,-141 213,-523 749,-761 1187,-1059 538,-184 1073,-418 1650,-441zm281 6289c-606,340 -1144,817 -1497,1420 -251,498 -360,1073 -268,1626 209,1074 1464,1647 2470,1410 615,-96 1114,-499 1515,-950 0,-1577 0,-3154 0,-4731 -762,367 -1509,767 -2220,1225zm9861 -5222c730,-758 1830,-1145 2872,-976 357,56 736,36 1068,200 347,163 748,244 1026,525 208,198 453,358 632,583 197,299 352,622 545,921 260,-388 433,-843 794,-1154 202,-181 361,-420 615,-535 334,-158 644,-401 1029,-416 1277,-264 2722,50 3665,985 652,672 982,1595 1078,2514 90,892 49,1790 58,2686 -3,1609 6,3217 -4,4826 -703,-8 -1406,-9 -2108,-1 3,-2507 10,-5015 -5,-7523 -66,-565 -11,-1154 -212,-1695 -86,-232 -127,-482 -245,-700 -185,-221 -380,-437 -587,-638 -533,-323 -1202,-279 -1782,-129 -779,234 -1406,870 -1680,1629 -270,837 -250,1730 -270,2600 -9,2151 2,4301 -6,6452 -691,-1 -1383,1 -2074,-1 9,-2477 4,-4954 4,-7430 -27,-850 -43,-1739 -423,-2519 -158,-354 -513,-550 -803,-782 -370,-70 -748,-182 -1125,-97 -1084,78 -1988,857 -2498,1778 -15,3017 1,6037 -8,9055 -727,-14 -1454,8 -2180,-11 10,-3643 5,-7286 3,-10929 726,-14 1453,3 2180,-6 1,419 -6,838 -1,1257 160,-143 301,-305 442,-469zm-70161 -789c796,5 1592,4 2389,-1 1133,2832 2276,5660 3430,8483 786,-1878 1560,-3760 2354,-5635 -392,-951 -790,-1898 -1177,-2849 788,4 1578,13 2368,-4 1172,2819 2290,5662 3445,8488 1198,-2823 2346,-5668 3549,-8489 80,5 241,14 322,18 -1609,3862 -3218,7723 -4841,11578 -1170,-2786 -2324,-5578 -3496,-8363 -1170,2786 -2329,5575 -3494,8363 -1631,-3857 -3235,-7725 -4849,-11589zm22548 14711c171,-2 342,-3 513,-4 7,1412 4,2823 1,4235 -199,-2 -407,6 -589,-87 -604,287 -1432,124 -1791,-466 -343,-590 -236,-1462 351,-1858 448,-283 1068,-330 1517,-21 -4,-600 0,-1200 -2,-1799zm-1138 1796c-339,321 -329,834 -333,1265 26,377 55,846 415,1065 340,164 752,66 1056,-134 1,-702 2,-1402 -2,-2104 -320,-225 -796,-333 -1136,-92zm43954 -1791c170,-4 342,-5 515,-7 6,1410 -4,2820 5,4230 -189,-31 -457,88 -555,-133 -626,402 -1594,139 -1898,-550 -219,-519 -152,-1187 259,-1593 445,-415 1168,-485 1686,-164 -16,-594 2,-1189 -12,-1783zm-1147 1796c-321,329 -317,827 -319,1256 23,365 51,809 375,1044 345,197 801,106 1101,-137 -17,-694 6,-1388 -10,-2083 -326,-225 -805,-321 -1147,-80zm-31370 -1802c170,-2 340,-2 511,0 -5,1410 2,2820 -6,4230 -167,-3 -334,-2 -501,0 -3,-1410 3,-2820 -4,-4230zm36957 314c183,-111 421,39 458,236 63,278 -352,536 -541,288 -162,-141 -129,-452 83,-524zm-17008 545c168,1 336,1 506,1 -1,275 -1,551 1,826 295,-3 594,-29 889,16 -289,97 -598,38 -895,54 19,681 -16,1364 18,2046 1,180 108,440 330,392 266,-62 375,-341 504,-550 4,410 -437,735 -832,633 -332,-20 -516,-352 -516,-655 -19,-623 1,-1247 -8,-1870 -147,2 -294,4 -440,7l-4 -75c148,-5 298,-9 447,-13 -4,-271 -4,-542 0,-812zm-45330 1070c420,-483 1262,-377 1550,194 274,-716 1439,-608 1616,119 129,651 37,1327 59,1987 -163,-3 -325,-4 -487,-4 -1,-577 0,-1154 -1,-1731 -6,-238 -18,-502 -182,-692 -353,-265 -883,33 -912,454 -57,655 -19,1315 -23,1972 -158,-1 -317,-1 -475,1 -29,-634 -1,-1269 -17,-1903 -10,-242 -76,-567 -355,-629 -284,-64 -528,129 -736,296 -87,739 -17,1489 -38,2233 -169,0 -337,1 -505,5 -6,-852 0,-1703 -2,-2554 168,0 337,-5 504,11 1,60 3,181 4,241zm7835 -282c626,-188 1354,159 1599,766 187,485 122,1090 -243,1477 -616,655 -1910,489 -2248,-377 -327,-731 101,-1680 892,-1866zm209 37c-389,51 -565,468 -594,814 -40,450 -62,934 128,1356 160,348 626,441 953,287 295,-157 361,-521 401,-823 28,-439 55,-911 -146,-1316 -137,-268 -459,-371 -742,-318zm11736 146c395,-274 956,-323 1367,-56 424,248 616,756 631,1227 -661,-5 -1321,4 -1982,-5 26,379 35,821 340,1094 358,230 853,121 1157,-154 143,-121 197,-327 374,-411 -155,377 -495,682 -901,753 -456,55 -961,-83 -1265,-443 -476,-592 -352,-1570 279,-2005zm177 175c-145,282 -154,607 -161,916 466,-9 931,3 1397,-5 -38,-383 -25,-824 -307,-1124 -284,-227 -772,-116 -929,213zm9771 12c304,-528 1180,-574 1526,-68 131,180 -43,537 -280,419 -156,-125 -94,-354 -117,-526 -217,-332 -793,-147 -807,240 105,412 573,526 882,748 322,176 594,553 442,930 -286,688 -1424,702 -1752,38 -93,-143 -56,-316 -57,-476 129,-105 280,-95 418,-11 3,219 -132,452 -29,662 202,269 623,311 898,135 199,-139 147,-419 32,-593 -267,-365 -713,-520 -1026,-833 -170,-170 -264,-448 -130,-665zm10111 157c176,-646 1157,-777 1551,-270 157,167 60,515 -198,492 -270,-126 -45,-523 -282,-674 -265,-152 -693,41 -686,370 73,333 430,464 689,625 311,182 691,422 674,833 -26,566 -704,838 -1190,708 -378,-91 -748,-446 -658,-861 51,-204 285,-194 416,-73 -7,187 -75,367 -69,554 81,254 397,354 642,334 202,-13 475,-160 427,-398 -32,-417 -449,-626 -753,-839 -268,-186 -616,-428 -563,-801zm27571 -526c649,-201 1406,193 1621,834 169,502 62,1117 -341,1479 -657,585 -1912,374 -2195,-507 -294,-724 149,-1626 915,-1806zm137 48c-411,110 -518,588 -543,956 -14,441 -39,934 218,1317 256,339 868,334 1097,-35 185,-279 189,-630 202,-955 -6,-364 -2,-767 -233,-1072 -162,-236 -485,-263 -741,-211zm-17443 -18c163,-2 326,-2 491,-1 6,649 -11,1298 8,1947 18,233 110,551 386,579 309,59 577,-154 738,-397 -6,-709 -1,-1418 -2,-2128 167,-1 336,-2 505,-1 -1,850 2,1700 -2,2550 -166,-1 -331,2 -495,6 -3,-71 -7,-213 -9,-284 -399,573 -1475,402 -1572,-325 -105,-642 -22,-1299 -48,-1946zm12116 -1c167,-1 337,-1 506,1 -3,850 6,1700 -6,2550 -167,-1 -333,1 -498,4 -5,-852 -1,-1703 -2,-2555z"/>
 </g>
</svg>
