<?xml version="1.0" ?><svg id="Calque_1" style="enable-background:new 0 0 512 512;" version="1.1" viewBox="0 0 512 512" xml:space="preserve" xmlns="http://www.w3.org/2000/svg" xmlns:xlink="http://www.w3.org/1999/xlink"><style type="text/css">
	.st0{fill:#c39a41;}
</style><g id="XMLID_1_"><path fill="#c39a41" class="st0" d="M365.7,0H146.3c-33.6,0-61,27.3-61,61V451c0,33.6,27.3,61,61,61h219.4c33.6,0,61-27.3,61-61V61   C426.7,27.3,399.3,0,365.7,0z M109.7,90.1h292.6v292H109.7V90.1z M146.3,24.4h219.4c20.2,0,36.6,16.4,36.6,36.6v4.7H109.7V61   C109.7,40.8,126.1,24.4,146.3,24.4z M365.7,487.6H146.3c-20.2,0-36.6-16.4-36.6-36.6v-44.6h292.6V451   C402.3,471.2,385.9,487.6,365.7,487.6z" id="XMLID_14_"/><path fill="#c39a41" class="st0" d="M256,410.3c-20.2,0-36.6,16.4-36.6,36.6c0,20.2,16.4,36.6,36.6,36.6   c20.2,0,36.6-16.4,36.6-36.6C292.6,426.7,276.2,410.3,256,410.3z M256,459.1c-6.7,0-12.2-5.5-12.2-12.2c0-6.7,5.5-12.2,12.2-12.2   c6.7,0,12.2,5.5,12.2,12.2C268.2,453.6,262.7,459.1,256,459.1z" id="XMLID_19_"/><path fill="#c39a41" class="st0" d="M214.5,57.1H264c6.7,0,12.2-5.5,12.2-12.2s-5.5-12.2-12.2-12.2h-49.5   c-6.7,0-12.2,5.5-12.2,12.2S207.7,57.1,214.5,57.1z" id="XMLID_20_"/><path fill="#c39a41" class="st0" d="M297.5,57.1c6.7,0,12.2-5.5,12.2-12.2s-5.5-12.2-12.2-12.2h-0.8c-6.7,0-11.8,5.5-11.8,12.2   S290.8,57.1,297.5,57.1z" id="XMLID_21_"/></g></svg>